<svg xmlns="http://www.w3.org/2000/svg" xmlns:xlink="http://www.w3.org/1999/xlink" width="500" zoomAndPan="magnify" viewBox="0 0 375 374.999991" height="500" preserveAspectRatio="xMidYMid meet" version="1.0"><path fill="#fde89d" d="M 187.5 0 C 83.945312 0 0 83.945312 0 187.5 C 0 291.054688 83.945312 375 187.5 375 C 291.054688 375 375 291.054688 375 187.5 C 375 83.945312 291.054688 0 187.5 0 " fill-opacity="1" fill-rule="nonzero"/><path fill="#d2b32b" d="M 285.03125 116.359375 C 287.328125 128.105469 283.917969 140.753906 274.800781 149.863281 C 264.558594 160.09375 249.835938 163.128906 236.941406 158.972656 C 235.554688 158.527344 234.128906 158.871094 233.097656 159.902344 C 215.992188 176.988281 172.902344 220.039062 155.800781 237.125 C 154.765625 238.15625 154.421875 239.582031 154.867188 240.96875 C 159.027344 253.847656 155.992188 268.558594 145.75 278.789062 C 136.632812 287.890625 123.980469 291.304688 112.210938 289.011719 C 110.804688 288.738281 109.734375 287.777344 109.316406 286.402344 C 108.894531 285.027344 109.238281 283.632812 110.257812 282.621094 L 133.273438 259.628906 C 134.75 258.15625 134.75 255.75 133.273438 254.273438 L 117.523438 238.550781 C 116.046875 237.074219 113.640625 237.074219 112.160156 238.550781 L 89.148438 261.542969 C 88.136719 262.550781 86.738281 262.894531 85.363281 262.480469 C 83.988281 262.058594 83.027344 260.996094 82.753906 259.578125 C 80.464844 247.832031 83.875 235.183594 92.984375 226.074219 C 103.234375 215.84375 117.949219 212.808594 130.851562 216.964844 C 132.238281 217.410156 133.667969 217.066406 134.6875 216.035156 C 151.792969 198.949219 194.894531 155.898438 211.996094 138.8125 C 213.027344 137.792969 213.363281 136.367188 212.917969 134.980469 C 208.757812 122.089844 211.792969 107.390625 222.035156 97.148438 C 231.152344 88.046875 243.8125 84.640625 255.582031 86.925781 C 256.988281 87.199219 258.050781 88.160156 258.476562 89.535156 C 258.902344 90.910156 258.546875 92.304688 257.535156 93.316406 L 234.511719 116.308594 C 233.046875 117.78125 233.046875 120.1875 234.511719 121.664062 L 250.257812 137.398438 C 251.738281 138.875 254.144531 138.875 255.621094 137.398438 L 278.636719 114.40625 C 279.65625 113.386719 281.042969 113.042969 282.421875 113.457031 C 283.796875 113.878906 284.757812 114.953125 285.03125 116.359375 Z M 285.03125 116.359375 " fill-opacity="1" fill-rule="evenodd"/><path fill="#040606" d="M 208.9375 230.976562 L 209.152344 230.765625 C 209.070312 230.835938 209.011719 230.90625 208.9375 230.976562 Z M 208.9375 230.976562 " fill-opacity="1" fill-rule="nonzero"/><path fill="#040606" d="M 141.207031 126.488281 C 140.476562 125.769531 139.949219 124.871094 139.648438 123.890625 L 134.730469 107.492188 C 134.222656 105.8125 133.027344 104.417969 131.441406 103.667969 L 107.738281 92.476562 C 105.238281 91.292969 102.253906 91.910156 100.421875 93.984375 L 97.214844 97.625 C 95.554688 99.515625 95.199219 102.214844 96.304688 104.46875 L 107.699219 127.558594 C 108.4375 129.054688 109.753906 130.199219 111.351562 130.714844 L 125.386719 135.285156 C 126.148438 135.527344 126.824219 135.941406 127.390625 136.488281 L 165.148438 173.671875 L 176.789062 162.035156 Z M 141.207031 126.488281 " fill-opacity="1" fill-rule="nonzero"/><path fill="#040606" d="M 291.972656 255.40625 L 241.019531 204.78125 L 240.980469 204.742188 C 240.179688 203.964844 239.105469 203.476562 237.902344 203.476562 C 236.757812 203.476562 235.726562 203.941406 234.949219 204.660156 C 234.949219 204.671875 234.9375 204.671875 234.9375 204.671875 L 234.796875 204.8125 C 234.472656 205.125 234.238281 205.347656 234.199219 205.367188 C 233.652344 205.621094 232.984375 205.53125 232.539062 205.085938 L 229.402344 201.980469 C 227.164062 199.765625 226.589844 196.53125 227.894531 193.722656 C 228.238281 192.984375 227.984375 191.871094 227.398438 191.296875 L 221.945312 185.894531 C 221.074219 185.035156 219.675781 185.046875 218.804688 185.917969 L 212.96875 191.8125 L 213.078125 191.921875 L 192.941406 212.042969 L 192.929688 212.03125 L 189.972656 215.003906 C 189.113281 215.875 189.125 217.289062 189.984375 218.136719 L 195.429688 223.527344 C 195.996094 224.082031 197.097656 224.375 197.816406 224.03125 C 200.628906 222.675781 203.910156 223.203125 206.15625 225.4375 L 209.292969 228.53125 C 209.871094 229.097656 209.871094 230.039062 209.304688 230.605469 L 209.152344 230.765625 L 208.9375 230.976562 C 208.210938 231.757812 207.746094 232.789062 207.746094 233.941406 C 207.746094 235.082031 208.199219 236.105469 208.917969 236.882812 L 209.183594 237.144531 L 260.015625 287.636719 C 262.890625 290.488281 267.542969 290.46875 270.386719 287.585938 L 292.023438 265.765625 C 294.867188 262.90625 294.839844 258.246094 291.972656 255.40625 Z M 291.972656 255.40625 " fill-opacity="1" fill-rule="nonzero"/></svg>