<svg xmlns="http://www.w3.org/2000/svg" xmlns:xlink="http://www.w3.org/1999/xlink" width="500" zoomAndPan="magnify" viewBox="0 0 375 374.999991" height="500" preserveAspectRatio="xMidYMid meet" version="1.0"><defs><clipPath id="57ec4e8277"><path d="M 238 93.234375 L 299.695312 93.234375 L 299.695312 191 L 238 191 Z M 238 93.234375 " clip-rule="nonzero"/></clipPath><clipPath id="ff6b8aa905"><path d="M 75.445312 93.234375 L 239 93.234375 L 239 191 L 75.445312 191 Z M 75.445312 93.234375 " clip-rule="nonzero"/></clipPath><clipPath id="600f218971"><path d="M 238 132 L 299.695312 132 L 299.695312 212 L 238 212 Z M 238 132 " clip-rule="nonzero"/></clipPath><clipPath id="d36ca2ecae"><path d="M 75.445312 132 L 239 132 L 239 212 L 75.445312 212 Z M 75.445312 132 " clip-rule="nonzero"/></clipPath><clipPath id="8d7ecdefa7"><path d="M 238 164 L 299.695312 164 L 299.695312 232 L 238 232 Z M 238 164 " clip-rule="nonzero"/></clipPath><clipPath id="7851004df8"><path d="M 75.445312 164 L 239 164 L 239 232 L 75.445312 232 Z M 75.445312 164 " clip-rule="nonzero"/></clipPath><clipPath id="55655470f8"><path d="M 238 196 L 299.695312 196 L 299.695312 251 L 238 251 Z M 238 196 " clip-rule="nonzero"/></clipPath><clipPath id="7e3156f537"><path d="M 75.445312 196 L 239 196 L 239 251 L 75.445312 251 Z M 75.445312 196 " clip-rule="nonzero"/></clipPath><clipPath id="352154aa3c"><path d="M 238 228 L 299.695312 228 L 299.695312 268 L 238 268 Z M 238 228 " clip-rule="nonzero"/></clipPath><clipPath id="6e293b79ae"><path d="M 75.445312 228 L 239 228 L 239 268 L 75.445312 268 Z M 75.445312 228 " clip-rule="nonzero"/></clipPath><clipPath id="3491cc554b"><path d="M 238 257 L 299.695312 257 L 299.695312 281.484375 L 238 281.484375 Z M 238 257 " clip-rule="nonzero"/></clipPath><clipPath id="728d809265"><path d="M 75.445312 257 L 239 257 L 239 281.484375 L 75.445312 281.484375 Z M 75.445312 257 " clip-rule="nonzero"/></clipPath></defs><path fill="#fde89d" d="M 187.5 0 C 83.945312 0 0 83.945312 0 187.5 C 0 291.054688 83.945312 375 187.5 375 C 291.054688 375 375 291.054688 375 187.5 C 375 83.945312 291.054688 0 187.5 0 " fill-opacity="1" fill-rule="nonzero"/><g clip-path="url(#57ec4e8277)"><path fill="#d2b32b" d="M 299.675781 179.371094 L 299.675781 190.964844 L 238.914062 120.640625 L 238.914062 93.148438 Z M 299.675781 179.371094 " fill-opacity="1" fill-rule="nonzero"/></g><g clip-path="url(#ff6b8aa905)"><path fill="#000000" d="M 238.914062 93.148438 L 238.914062 120.640625 L 129.574219 190.964844 L 75.542969 190.964844 L 75.542969 183.785156 L 129.574219 179.371094 Z M 238.914062 93.148438 " fill-opacity="1" fill-rule="nonzero"/></g><g clip-path="url(#600f218971)"><path fill="#d2b32b" d="M 299.675781 200.917969 L 299.675781 211.125 L 238.914062 153.210938 L 238.914062 132.386719 Z M 299.675781 200.917969 " fill-opacity="1" fill-rule="nonzero"/></g><g clip-path="url(#d36ca2ecae)"><path fill="#000000" d="M 238.914062 132.386719 L 238.914062 153.210938 L 129.574219 211.125 L 75.542969 211.125 L 75.542969 204.25 L 129.574219 200.148438 Z M 238.914062 132.386719 " fill-opacity="1" fill-rule="nonzero"/></g><g clip-path="url(#8d7ecdefa7)"><path fill="#d2b32b" d="M 299.675781 222.410156 L 299.675781 231.28125 L 238.914062 185.835938 L 238.914062 164.988281 Z M 299.675781 222.410156 " fill-opacity="1" fill-rule="nonzero"/></g><g clip-path="url(#7851004df8)"><path fill="#000000" d="M 238.914062 164.988281 L 238.914062 185.835938 L 129.574219 231.28125 L 75.542969 231.28125 L 75.542969 224.769531 L 129.574219 220.972656 Z M 238.914062 164.988281 " fill-opacity="1" fill-rule="nonzero"/></g><g clip-path="url(#55655470f8)"><path fill="#d2b32b" d="M 299.675781 243.039062 L 299.675781 250.578125 L 238.914062 217.496094 L 238.914062 196.875 Z M 299.675781 243.039062 " fill-opacity="1" fill-rule="nonzero"/></g><g clip-path="url(#7e3156f537)"><path fill="#000000" d="M 238.914062 196.875 L 238.914062 217.496094 L 129.574219 250.578125 L 75.542969 250.578125 L 75.542969 244.320312 L 129.574219 240.832031 Z M 238.914062 196.875 " fill-opacity="1" fill-rule="nonzero"/></g><g clip-path="url(#352154aa3c)"><path fill="#d2b32b" d="M 299.675781 261.382812 L 299.675781 267.539062 L 238.914062 246.867188 L 238.914062 228.605469 Z M 299.675781 261.382812 " fill-opacity="1" fill-rule="nonzero"/></g><g clip-path="url(#6e293b79ae)"><path fill="#000000" d="M 238.914062 228.605469 L 238.914062 246.867188 L 129.574219 267.539062 L 75.542969 267.539062 L 75.542969 261.585938 L 129.574219 258.457031 Z M 238.914062 228.605469 " fill-opacity="1" fill-rule="nonzero"/></g><g clip-path="url(#3491cc554b)"><path fill="#d2b32b" d="M 299.675781 276.84375 L 299.675781 281.613281 L 238.914062 273.40625 L 238.914062 257.402344 Z M 299.675781 276.84375 " fill-opacity="1" fill-rule="nonzero"/></g><g clip-path="url(#728d809265)"><path fill="#000000" d="M 238.914062 257.402344 L 238.914062 273.40625 L 129.574219 281.613281 L 75.542969 281.613281 L 75.542969 277.242188 L 129.574219 274.730469 Z M 238.914062 257.402344 " fill-opacity="1" fill-rule="nonzero"/></g></svg>