<svg xmlns="http://www.w3.org/2000/svg" xmlns:xlink="http://www.w3.org/1999/xlink" width="500" zoomAndPan="magnify" viewBox="0 0 375 374.999991" height="500" preserveAspectRatio="xMidYMid meet" version="1.0"><defs><clipPath id="109b42fadb"><path d="M 92 183 L 286 183 L 286 291.9375 L 92 291.9375 Z M 92 183 " clip-rule="nonzero"/></clipPath><clipPath id="61f01dd984"><path d="M 271 218 L 290.726562 218 L 290.726562 254 L 271 254 Z M 271 218 " clip-rule="nonzero"/></clipPath><clipPath id="cab5b9edde"><path d="M 84.476562 215 L 104 215 L 104 251 L 84.476562 251 Z M 84.476562 215 " clip-rule="nonzero"/></clipPath></defs><path fill="#fde89d" d="M 187.5 0 C 83.945312 0 0 83.945312 0 187.5 C 0 291.054688 83.945312 375 187.5 375 C 291.054688 375 375 291.054688 375 187.5 C 375 83.945312 291.054688 0 187.5 0 " fill-opacity="1" fill-rule="nonzero"/><path fill="#e6e9ed" d="M 234.71875 144.941406 C 234.71875 146.390625 234.648438 147.835938 234.503906 149.277344 C 234.363281 150.71875 234.148438 152.148438 233.867188 153.570312 C 233.582031 154.992188 233.230469 156.394531 232.808594 157.78125 C 232.386719 159.167969 231.898438 160.527344 231.34375 161.867188 C 230.789062 163.207031 230.167969 164.511719 229.484375 165.792969 C 228.800781 167.070312 228.054688 168.308594 227.25 169.515625 C 226.441406 170.71875 225.578125 171.878906 224.660156 173 C 223.738281 174.121094 222.765625 175.191406 221.738281 176.214844 C 220.710938 177.242188 219.636719 178.210938 218.515625 179.132812 C 217.394531 180.050781 216.230469 180.914062 215.023438 181.71875 C 213.816406 182.523438 212.574219 183.265625 211.292969 183.949219 C 210.011719 184.632812 208.703125 185.25 207.363281 185.804688 C 206.019531 186.359375 204.65625 186.847656 203.265625 187.265625 C 201.878906 187.6875 200.472656 188.039062 199.050781 188.320312 C 197.625 188.605469 196.191406 188.816406 194.746094 188.957031 C 193.304688 189.101562 191.855469 189.171875 190.402344 189.171875 C 188.953125 189.171875 187.503906 189.101562 186.058594 188.957031 C 184.617188 188.816406 183.183594 188.605469 181.757812 188.320312 C 180.335938 188.039062 178.929688 187.6875 177.539062 187.265625 C 176.152344 186.847656 174.785156 186.359375 173.445312 185.804688 C 172.105469 185.25 170.792969 184.632812 169.515625 183.949219 C 168.234375 183.265625 166.992188 182.523438 165.785156 181.71875 C 164.578125 180.914062 163.414062 180.050781 162.289062 179.132812 C 161.167969 178.210938 160.09375 177.242188 159.070312 176.214844 C 158.042969 175.191406 157.070312 174.121094 156.148438 173 C 155.226562 171.878906 154.363281 170.71875 153.558594 169.515625 C 152.75 168.308594 152.007812 167.070312 151.320312 165.792969 C 150.636719 164.511719 150.019531 163.207031 149.460938 161.867188 C 148.90625 160.527344 148.417969 159.167969 147.996094 157.78125 C 147.578125 156.394531 147.222656 154.992188 146.941406 153.570312 C 146.65625 152.148438 146.445312 150.71875 146.304688 149.277344 C 146.160156 147.835938 146.089844 146.390625 146.089844 144.941406 C 146.089844 143.492188 146.160156 142.046875 146.304688 140.605469 C 146.445312 139.164062 146.65625 137.734375 146.941406 136.3125 C 147.222656 134.890625 147.578125 133.488281 147.996094 132.101562 C 148.417969 130.714844 148.90625 129.351562 149.460938 128.015625 C 150.019531 126.675781 150.636719 125.367188 151.320312 124.089844 C 152.007812 122.8125 152.75 121.570312 153.558594 120.367188 C 154.363281 119.164062 155.226562 118 156.148438 116.878906 C 157.070312 115.761719 158.042969 114.6875 159.070312 113.664062 C 160.09375 112.640625 161.167969 111.667969 162.289062 110.75 C 163.414062 109.832031 164.578125 108.96875 165.785156 108.164062 C 166.992188 107.359375 168.234375 106.617188 169.515625 105.933594 C 170.792969 105.25 172.105469 104.632812 173.445312 104.078125 C 174.785156 103.523438 176.152344 103.035156 177.539062 102.613281 C 178.929688 102.195312 180.335938 101.84375 181.757812 101.558594 C 183.183594 101.277344 184.617188 101.066406 186.058594 100.921875 C 187.503906 100.78125 188.953125 100.710938 190.402344 100.710938 C 191.855469 100.710938 193.304688 100.78125 194.746094 100.921875 C 196.191406 101.066406 197.625 101.277344 199.050781 101.558594 C 200.472656 101.84375 201.878906 102.195312 203.265625 102.613281 C 204.65625 103.035156 206.019531 103.523438 207.363281 104.078125 C 208.703125 104.632812 210.011719 105.25 211.292969 105.933594 C 212.574219 106.617188 213.816406 107.359375 215.023438 108.164062 C 216.230469 108.96875 217.394531 109.832031 218.515625 110.75 C 219.636719 111.667969 220.710938 112.640625 221.738281 113.664062 C 222.765625 114.6875 223.738281 115.761719 224.660156 116.878906 C 225.578125 118 226.441406 119.164062 227.25 120.367188 C 228.054688 121.570312 228.800781 122.8125 229.484375 124.089844 C 230.167969 125.367188 230.789062 126.675781 231.34375 128.015625 C 231.898438 129.351562 232.386719 130.714844 232.808594 132.101562 C 233.230469 133.488281 233.582031 134.890625 233.867188 136.3125 C 234.148438 137.734375 234.363281 139.164062 234.503906 140.605469 C 234.648438 142.046875 234.71875 143.492188 234.71875 144.941406 Z M 234.71875 144.941406 " fill-opacity="1" fill-rule="nonzero"/><path fill="#321019" d="M 190.40625 190.8125 C 165.0625 190.8125 144.449219 170.234375 144.449219 144.941406 C 144.449219 119.648438 165.0625 99.070312 190.40625 99.070312 C 215.746094 99.070312 236.359375 119.648438 236.359375 144.941406 C 236.359375 170.234375 215.746094 190.8125 190.40625 190.8125 Z M 190.40625 102.347656 C 166.875 102.347656 147.730469 121.453125 147.730469 144.941406 C 147.730469 168.425781 166.875 187.535156 190.40625 187.535156 C 213.933594 187.535156 233.078125 168.425781 233.078125 144.941406 C 233.078125 121.453125 213.933594 102.347656 190.40625 102.347656 Z M 190.40625 102.347656 " fill-opacity="1" fill-rule="nonzero"/><path fill="#ffffff" d="M 165.5 176.574219 C 165.128906 176.574219 164.757812 176.449219 164.449219 176.195312 C 156.625 169.714844 151.539062 160.636719 150.132812 150.636719 C 150.003906 149.738281 150.628906 148.910156 151.527344 148.785156 C 152.429688 148.65625 153.253906 149.28125 153.382812 150.179688 C 154.675781 159.371094 159.351562 167.710938 166.546875 173.671875 C 167.246094 174.25 167.339844 175.285156 166.761719 175.980469 C 166.4375 176.371094 165.96875 176.574219 165.5 176.574219 Z M 165.5 176.574219 " fill-opacity="1" fill-rule="nonzero"/><path fill="#d2b32b" d="M 148.238281 141.839844 L 148.238281 138.839844 L 233.84375 138.839844 C 234.480469 135.652344 234.824219 132.347656 234.824219 128.960938 C 234.824219 102.757812 214.746094 81.519531 189.972656 81.519531 C 165.207031 81.519531 145.125 102.757812 145.125 128.960938 C 145.125 133.425781 145.71875 137.746094 146.816406 141.839844 Z M 148.238281 141.839844 " fill-opacity="1" fill-rule="nonzero"/><path fill="#321019" d="M 148.238281 143.480469 L 146.816406 143.480469 C 146.070312 143.480469 145.421875 142.980469 145.230469 142.261719 C 144.070312 137.925781 143.484375 133.449219 143.484375 128.960938 C 143.484375 101.894531 164.339844 79.878906 189.976562 79.878906 C 215.609375 79.878906 236.46875 101.894531 236.46875 128.960938 C 236.46875 132.367188 236.125 135.796875 235.453125 139.164062 C 235.300781 139.929688 234.628906 140.480469 233.84375 140.480469 L 149.878906 140.480469 L 149.878906 141.84375 C 149.878906 142.746094 149.144531 143.480469 148.238281 143.480469 Z M 189.976562 83.15625 C 166.152344 83.15625 146.765625 103.703125 146.765625 128.960938 C 146.765625 131.78125 147.015625 134.597656 147.507812 137.375 C 147.726562 137.265625 147.976562 137.203125 148.238281 137.203125 L 232.480469 137.203125 C 232.945312 134.472656 233.183594 131.707031 233.183594 128.960938 C 233.183594 103.703125 213.800781 83.15625 189.976562 83.15625 Z M 189.976562 83.15625 " fill-opacity="1" fill-rule="nonzero"/><path fill="#d2b32b" d="M 198.910156 128.824219 C 198.910156 134.503906 194.296875 139.105469 188.613281 139.105469 L 188.394531 139.105469 C 182.707031 139.105469 178.097656 134.503906 178.097656 128.824219 L 178.097656 85.128906 C 178.097656 79.453125 182.707031 74.847656 188.394531 74.847656 L 188.613281 74.847656 C 194.296875 74.847656 198.910156 79.453125 198.910156 85.128906 Z M 198.910156 128.824219 " fill-opacity="1" fill-rule="nonzero"/><path fill="#321019" d="M 188.609375 140.742188 L 188.394531 140.742188 C 181.808594 140.742188 176.453125 135.394531 176.453125 128.824219 L 176.453125 85.128906 C 176.453125 78.554688 181.8125 73.207031 188.394531 73.207031 L 188.609375 73.207031 C 195.195312 73.207031 200.550781 78.554688 200.550781 85.128906 L 200.550781 128.824219 C 200.554688 135.394531 195.195312 140.742188 188.609375 140.742188 Z M 188.394531 76.488281 C 183.621094 76.488281 179.738281 80.363281 179.738281 85.128906 L 179.738281 128.824219 C 179.738281 133.589844 183.621094 137.464844 188.394531 137.464844 L 188.609375 137.464844 C 193.382812 137.464844 197.269531 133.589844 197.269531 128.824219 L 197.269531 85.128906 C 197.269531 80.363281 193.382812 76.488281 188.609375 76.488281 Z M 188.394531 76.488281 " fill-opacity="1" fill-rule="nonzero"/><path fill="#d2b32b" d="M 248.164062 140.449219 C 248.164062 145.191406 243.769531 149.035156 238.347656 149.035156 L 142.460938 149.035156 C 137.039062 149.035156 132.644531 145.191406 132.644531 140.449219 C 132.644531 135.707031 137.039062 131.863281 142.460938 131.863281 L 238.347656 131.863281 C 243.769531 131.863281 248.164062 135.707031 248.164062 140.449219 Z M 248.164062 140.449219 " fill-opacity="1" fill-rule="nonzero"/><path fill="#321019" d="M 238.347656 150.675781 L 142.460938 150.675781 C 136.144531 150.675781 131 146.085938 131 140.449219 C 131 134.808594 136.140625 130.222656 142.460938 130.222656 L 238.347656 130.222656 C 244.664062 130.222656 249.808594 134.8125 249.808594 140.449219 C 249.808594 146.085938 244.667969 150.675781 238.347656 150.675781 Z M 142.460938 133.5 C 137.953125 133.5 134.285156 136.617188 134.285156 140.449219 C 134.285156 144.277344 137.953125 147.394531 142.460938 147.394531 L 238.347656 147.394531 C 242.855469 147.394531 246.523438 144.277344 246.523438 140.449219 C 246.523438 136.617188 242.855469 133.5 238.347656 133.5 Z M 142.460938 133.5 " fill-opacity="1" fill-rule="nonzero"/><g clip-path="url(#109b42fadb)"><path fill="#d2b32b" d="M 270.855469 284.691406 C 270.855469 288.542969 267.726562 291.667969 263.867188 291.667969 L 114.246094 291.667969 C 110.390625 291.667969 107.261719 288.542969 107.261719 284.691406 L 92.121094 189.972656 C 92.121094 186.121094 95.25 183 99.109375 183 L 279.007812 183 C 282.863281 183 285.992188 186.121094 285.992188 189.972656 Z M 270.855469 284.691406 " fill-opacity="1" fill-rule="nonzero"/></g><path fill="#ffffff" d="M 101.875 208.445312 C 101.082031 208.445312 100.386719 207.871094 100.257812 207.066406 L 98.222656 194.335938 C 98.210938 194.25 98.203125 194.164062 98.203125 194.078125 C 98.203125 189.527344 101.914062 185.824219 106.472656 185.824219 L 119.484375 185.824219 C 120.390625 185.824219 121.128906 186.558594 121.128906 187.460938 C 121.128906 188.367188 120.390625 189.101562 119.484375 189.101562 L 106.472656 189.101562 C 103.765625 189.101562 101.554688 191.269531 101.488281 193.957031 L 103.5 206.546875 C 103.644531 207.441406 103.03125 208.28125 102.136719 208.425781 C 102.050781 208.4375 101.960938 208.445312 101.875 208.445312 Z M 101.875 208.445312 " fill-opacity="1" fill-rule="nonzero"/><path fill="#e6e9ed" d="M 289.097656 245.371094 C 289.097656 249.222656 285.972656 252.34375 282.113281 252.34375 L 280.558594 252.34375 C 276.699219 252.34375 273.574219 249.222656 273.574219 245.371094 L 273.574219 227.550781 C 273.574219 223.699219 276.699219 220.578125 280.558594 220.578125 L 282.113281 220.578125 C 285.96875 220.578125 289.097656 223.699219 289.097656 227.550781 Z M 289.097656 245.371094 " fill-opacity="1" fill-rule="nonzero"/><g clip-path="url(#61f01dd984)"><path fill="#321019" d="M 282.113281 253.984375 L 280.558594 253.984375 C 275.800781 253.984375 271.929688 250.121094 271.929688 245.371094 L 271.929688 227.550781 C 271.929688 222.800781 275.800781 218.9375 280.558594 218.9375 L 282.113281 218.9375 C 286.871094 218.9375 290.742188 222.800781 290.742188 227.550781 L 290.742188 245.371094 C 290.742188 250.121094 286.871094 253.984375 282.113281 253.984375 Z M 280.558594 222.21875 C 277.613281 222.21875 275.214844 224.609375 275.214844 227.550781 L 275.214844 245.371094 C 275.214844 248.3125 277.613281 250.707031 280.558594 250.707031 L 282.113281 250.707031 C 285.058594 250.707031 287.457031 248.3125 287.457031 245.371094 L 287.457031 227.550781 C 287.457031 224.609375 285.058594 222.21875 282.113281 222.21875 Z M 280.558594 222.21875 " fill-opacity="1" fill-rule="nonzero"/></g><path fill="#e6e9ed" d="M 101.632812 241.496094 C 101.632812 245.347656 98.503906 248.46875 94.644531 248.46875 L 93.089844 248.46875 C 89.234375 248.46875 86.105469 245.347656 86.105469 241.496094 L 86.105469 223.675781 C 86.105469 219.824219 89.230469 216.703125 93.089844 216.703125 L 94.644531 216.703125 C 98.503906 216.703125 101.632812 219.824219 101.632812 223.675781 Z M 101.632812 241.496094 " fill-opacity="1" fill-rule="nonzero"/><g clip-path="url(#cab5b9edde)"><path fill="#321019" d="M 94.644531 250.109375 L 93.09375 250.109375 C 88.335938 250.109375 84.464844 246.246094 84.464844 241.496094 L 84.464844 223.675781 C 84.464844 218.925781 88.335938 215.0625 93.09375 215.0625 L 94.644531 215.0625 C 99.402344 215.0625 103.273438 218.925781 103.273438 223.675781 L 103.273438 241.496094 C 103.273438 246.246094 99.402344 250.109375 94.644531 250.109375 Z M 93.09375 218.34375 C 90.148438 218.34375 87.75 220.734375 87.75 223.675781 L 87.75 241.496094 C 87.75 244.4375 90.144531 246.832031 93.09375 246.832031 L 94.644531 246.832031 C 97.59375 246.832031 99.992188 244.4375 99.992188 241.496094 L 99.992188 223.675781 C 99.992188 220.734375 97.59375 218.34375 94.644531 218.34375 Z M 93.09375 218.34375 " fill-opacity="1" fill-rule="nonzero"/></g></svg>