<svg xmlns="http://www.w3.org/2000/svg" xmlns:xlink="http://www.w3.org/1999/xlink" width="500" zoomAndPan="magnify" viewBox="0 0 375 374.999991" height="500" preserveAspectRatio="xMidYMid meet" version="1.0"><defs><clipPath id="4a6a4167cf"><path d="M 78.191406 78.191406 L 296.441406 78.191406 L 296.441406 296.441406 L 78.191406 296.441406 Z M 78.191406 78.191406 " clip-rule="nonzero"/></clipPath></defs><path fill="#fde89d" d="M 187.5 0 C 83.945312 0 0 83.945312 0 187.5 C 0 291.054688 83.945312 375 187.5 375 C 291.054688 375 375 291.054688 375 187.5 C 375 83.945312 291.054688 0 187.5 0 " fill-opacity="1" fill-rule="nonzero"/><path fill="#d2b32b" d="M 187.136719 263.578125 C 145.003906 263.578125 110.875 229.433594 110.875 187.316406 C 110.875 145.199219 145.003906 111.054688 187.136719 111.054688 C 229.25 111.054688 263.394531 145.199219 263.394531 187.316406 C 263.394531 229.433594 229.25 263.578125 187.136719 263.578125 Z M 292.050781 178.28125 C 291.835938 176.023438 290.277344 174.054688 288.164062 173.230469 L 275.921875 168.324219 C 273.566406 157.355469 269.238281 147.113281 263.324219 137.992188 L 268.515625 125.835938 C 269.425781 123.722656 269.167969 121.253906 267.679688 119.523438 C 263.75 114.984375 259.550781 110.617188 254.925781 106.773438 C 253.195312 105.28125 250.726562 105.027344 248.613281 105.933594 L 236.457031 111.128906 C 227.335938 105.210938 217.09375 100.886719 206.128906 98.53125 L 201.222656 86.289062 C 200.398438 84.175781 198.425781 82.613281 196.171875 82.402344 C 190.441406 81.890625 184.042969 81.820312 178.097656 82.402344 C 175.84375 82.613281 173.886719 84.175781 173.050781 86.289062 L 168.140625 98.53125 C 157.175781 100.886719 146.933594 105.210938 137.8125 111.128906 L 125.65625 105.933594 C 123.542969 105.027344 121.117188 105.28125 119.34375 106.773438 C 114.761719 110.703125 110.433594 114.871094 106.589844 119.523438 C 105.101562 121.253906 104.847656 123.722656 105.753906 125.835938 L 110.945312 137.992188 C 105.03125 147.113281 100.703125 157.355469 98.347656 168.324219 L 86.105469 173.230469 C 84.007812 174.054688 82.433594 176.023438 82.21875 178.28125 C 81.710938 184.011719 81.636719 190.394531 82.21875 196.351562 C 82.433594 198.609375 84.007812 200.578125 86.105469 201.402344 L 98.347656 206.3125 C 100.703125 217.277344 105.03125 227.519531 110.945312 236.640625 L 105.753906 248.796875 C 104.847656 250.910156 105.101562 253.378906 106.589844 255.109375 C 110.503906 259.648438 114.71875 264.015625 119.34375 267.859375 C 121.117188 269.351562 123.542969 269.605469 125.65625 268.699219 L 137.8125 263.507812 C 146.933594 269.421875 157.175781 273.746094 168.140625 276.101562 L 173.050781 288.34375 C 173.886719 290.445312 175.84375 292.019531 178.097656 292.230469 C 183.800781 292.742188 190.226562 292.8125 196.171875 292.230469 C 198.425781 292.019531 200.398438 290.445312 201.222656 288.34375 L 206.128906 276.101562 C 217.09375 273.746094 227.335938 269.421875 236.457031 263.507812 L 248.613281 268.699219 C 250.726562 269.605469 253.195312 269.351562 254.925781 267.859375 C 259.507812 263.945312 263.835938 259.761719 267.679688 255.109375 C 269.167969 253.378906 269.425781 250.910156 268.515625 248.796875 L 263.324219 236.640625 C 269.238281 227.519531 273.566406 217.277344 275.921875 206.3125 L 288.164062 201.402344 C 290.277344 200.578125 291.835938 198.609375 292.050781 196.351562 C 292.558594 190.648438 292.632812 184.238281 292.050781 178.28125 " fill-opacity="1" fill-rule="nonzero"/><path fill="#f2c70f" d="M 183.503906 194.578125 L 173.886719 233.0625 C 172.808594 237.375 178.4375 240.070312 181.121094 236.496094 L 219.082031 185.855469 C 220.882812 183.472656 219.179688 180.054688 216.1875 180.054688 L 190.765625 180.054688 L 200.382812 141.570312 C 201.460938 137.257812 195.832031 134.5625 193.148438 138.136719 L 155.191406 188.777344 C 153.386719 191.160156 155.089844 194.578125 158.082031 194.578125 L 183.503906 194.578125 " fill-opacity="1" fill-rule="nonzero"/><path fill="#040606" d="M 187.136719 267.207031 C 231.195312 267.207031 267.027344 231.375 267.027344 187.316406 C 267.027344 143.257812 231.195312 107.425781 187.136719 107.425781 C 172.3125 107.425781 157.84375 111.511719 145.289062 119.253906 C 143.570312 120.304688 143.046875 122.546875 144.097656 124.25 C 145.144531 125.949219 147.386719 126.488281 149.089844 125.441406 C 160.507812 118.402344 173.660156 114.6875 187.136719 114.6875 C 227.179688 114.6875 259.765625 147.269531 259.765625 187.316406 C 259.765625 227.363281 227.179688 259.945312 187.136719 259.945312 C 147.089844 259.945312 114.507812 227.363281 114.507812 187.316406 C 114.507812 167.640625 122.25 149.214844 136.308594 135.441406 C 137.742188 134.035156 137.753906 131.738281 136.367188 130.304688 C 134.960938 128.871094 132.648438 128.84375 131.214844 130.25 C 115.753906 145.398438 107.242188 165.667969 107.242188 187.316406 C 107.242188 231.375 143.074219 267.207031 187.136719 267.207031 " fill-opacity="1" fill-rule="nonzero"/><g clip-path="url(#4a6a4167cf)"><path fill="#040606" d="M 101.910156 169.074219 C 104.121094 158.71875 108.179688 148.917969 113.980469 139.980469 C 114.648438 138.957031 114.761719 137.683594 114.277344 136.574219 L 109.085938 124.40625 C 108.703125 123.496094 108.804688 122.53125 109.398438 121.835938 C 112.734375 117.808594 116.746094 113.792969 121.699219 109.550781 C 122.351562 108.984375 123.316406 108.871094 124.238281 109.28125 L 136.394531 114.460938 C 137.5 114.941406 138.777344 114.828125 139.796875 114.164062 C 148.75 108.359375 158.539062 104.304688 168.90625 102.089844 C 170.085938 101.851562 171.0625 101.011719 171.515625 99.890625 L 176.410156 87.636719 C 176.765625 86.757812 177.574219 86.117188 178.46875 86.03125 C 183.714844 85.507812 189.886719 85.507812 195.84375 86.03125 C 196.695312 86.117188 197.503906 86.757812 197.859375 87.621094 L 202.753906 99.890625 C 203.207031 101.011719 204.1875 101.851562 205.378906 102.089844 C 215.734375 104.304688 225.519531 108.359375 234.472656 114.164062 C 235.492188 114.828125 236.769531 114.941406 237.875 114.460938 L 250.046875 109.269531 C 250.953125 108.886719 251.90625 108.984375 252.613281 109.582031 C 256.65625 112.929688 260.671875 116.941406 264.898438 121.878906 C 265.464844 122.53125 265.566406 123.496094 265.167969 124.417969 L 259.992188 136.574219 C 259.507812 137.683594 259.621094 138.957031 260.289062 139.980469 C 266.089844 148.929688 270.148438 158.71875 272.359375 169.074219 C 272.601562 170.265625 273.4375 171.246094 274.558594 171.699219 L 286.816406 176.59375 C 287.695312 176.945312 288.347656 177.753906 288.417969 178.605469 C 288.417969 178.621094 288.417969 178.636719 288.417969 178.648438 C 288.941406 183.898438 288.941406 190.070312 288.417969 196.027344 C 288.347656 196.878906 287.695312 197.6875 286.828125 198.039062 L 274.558594 202.933594 C 273.4375 203.386719 272.601562 204.367188 272.359375 205.558594 C 270.148438 215.914062 266.089844 225.703125 260.289062 234.652344 C 259.621094 235.675781 259.507812 236.949219 259.992188 238.058594 L 265.183594 250.226562 C 265.566406 251.136719 265.464844 252.101562 264.871094 252.796875 C 261.535156 256.824219 257.523438 260.851562 252.558594 265.09375 C 251.917969 265.648438 250.953125 265.761719 250.03125 265.351562 L 237.875 260.171875 C 236.769531 259.691406 235.492188 259.804688 234.472656 260.46875 C 225.519531 266.273438 215.734375 270.328125 205.378906 272.542969 C 204.1875 272.796875 203.207031 273.621094 202.753906 274.742188 L 197.859375 286.996094 C 197.503906 287.875 196.695312 288.527344 195.800781 288.601562 C 190.554688 289.140625 184.382812 289.125 178.4375 288.601562 C 177.589844 288.527344 176.765625 287.875 176.410156 287.011719 L 171.515625 274.742188 C 171.0625 273.621094 170.085938 272.796875 168.90625 272.542969 C 158.539062 270.328125 148.75 266.273438 139.796875 260.46875 C 139.1875 260.074219 138.507812 259.875 137.8125 259.875 C 137.332031 259.875 136.847656 259.972656 136.394531 260.171875 L 124.222656 265.363281 C 123.316406 265.746094 122.351562 265.648438 121.65625 265.050781 C 117.613281 261.71875 113.597656 257.691406 109.355469 252.738281 C 108.804688 252.101562 108.703125 251.136719 109.101562 250.214844 L 114.277344 238.058594 C 114.761719 236.949219 114.648438 235.675781 113.980469 234.652344 C 108.179688 225.714844 104.121094 215.914062 101.910156 205.558594 C 101.667969 204.367188 100.832031 203.386719 99.710938 202.933594 L 87.453125 198.039062 C 86.574219 197.6875 85.9375 196.878906 85.851562 195.984375 C 85.328125 190.722656 85.328125 184.550781 85.851562 178.605469 C 85.9375 177.753906 86.574219 176.945312 87.441406 176.59375 L 99.710938 171.699219 C 100.832031 171.246094 101.667969 170.265625 101.910156 169.074219 Z M 84.730469 169.867188 C 81.339844 171.230469 78.929688 174.421875 78.617188 177.96875 C 78.050781 184.351562 78.050781 191.003906 78.617188 196.664062 C 78.929688 200.210938 81.339844 203.402344 84.746094 204.777344 L 95.242188 208.976562 C 97.570312 218.878906 101.457031 228.269531 106.859375 236.964844 L 102.421875 247.363281 C 100.929688 250.839844 101.484375 254.710938 103.851562 257.476562 C 108.363281 262.738281 112.660156 267.039062 116.972656 270.613281 C 119.753906 272.96875 123.628906 273.519531 127.089844 272.046875 L 137.484375 267.589844 C 146.183594 272.996094 155.585938 276.898438 165.488281 279.210938 L 169.6875 289.71875 C 171.046875 293.109375 174.242188 295.523438 177.785156 295.835938 C 180.976562 296.117188 184.242188 296.261719 187.40625 296.261719 C 190.582031 296.261719 193.660156 296.117188 196.484375 295.835938 C 200.03125 295.523438 203.222656 293.109375 204.597656 289.707031 L 208.796875 279.210938 C 218.699219 276.898438 228.089844 272.996094 236.785156 267.589844 L 247.179688 272.03125 C 250.65625 273.535156 254.53125 272.96875 257.296875 270.613281 C 262.558594 266.085938 266.871094 261.773438 270.417969 257.476562 C 272.800781 254.710938 273.339844 250.824219 271.863281 247.363281 L 267.410156 236.964844 C 272.8125 228.269531 276.699219 218.878906 279.027344 208.976562 L 289.539062 204.765625 C 292.929688 203.402344 295.328125 200.210938 295.652344 196.664062 C 296.21875 190.28125 296.21875 183.628906 295.652344 177.953125 C 295.328125 174.40625 292.929688 171.230469 289.523438 169.855469 L 279.027344 165.65625 C 276.699219 155.753906 272.8125 146.363281 267.410156 137.667969 L 271.851562 127.269531 C 273.339844 123.808594 272.800781 119.9375 270.417969 117.15625 C 265.921875 111.90625 261.609375 107.59375 257.296875 104.035156 C 254.515625 101.652344 250.65625 101.113281 247.179688 102.585938 L 236.785156 107.042969 C 228.089844 101.636719 218.699219 97.75 208.796875 95.421875 L 204.582031 84.914062 C 203.222656 81.507812 200.03125 79.109375 196.484375 78.796875 C 190.085938 78.230469 183.433594 78.230469 177.785156 78.796875 C 174.242188 79.109375 171.0625 81.507812 169.671875 84.925781 L 165.488281 95.421875 C 155.585938 97.75 146.183594 101.636719 137.484375 107.042969 L 127.089844 102.601562 C 123.628906 101.097656 119.753906 101.652344 116.972656 104.035156 C 111.695312 108.558594 107.398438 112.871094 103.851562 117.15625 C 101.484375 119.921875 100.929688 123.808594 102.40625 127.269531 L 106.859375 137.667969 C 101.457031 146.363281 97.570312 155.753906 95.242188 165.65625 L 84.730469 169.867188 " fill-opacity="1" fill-rule="nonzero"/></g><path fill="#040606" d="M 196.867188 140.6875 L 187.25 179.175781 C 186.980469 180.253906 187.21875 181.402344 187.902344 182.28125 C 188.597656 183.175781 189.644531 183.683594 190.765625 183.683594 L 216.1875 183.683594 L 178.210938 234.328125 C 178.097656 234.46875 177.984375 234.609375 177.660156 234.453125 C 177.320312 234.296875 177.359375 234.113281 177.402344 233.945312 L 187.019531 195.457031 C 187.289062 194.378906 187.050781 193.230469 186.367188 192.351562 C 185.671875 191.457031 184.625 190.949219 183.503906 190.949219 L 158.097656 190.949219 L 196.058594 140.304688 C 196.171875 140.164062 196.285156 140.023438 196.609375 140.179688 C 196.949219 140.335938 196.910156 140.519531 196.867188 140.6875 Z M 199.730469 133.609375 C 196.382812 132.007812 192.46875 132.972656 190.242188 135.953125 L 152.28125 186.59375 C 150.621094 188.804688 150.351562 191.726562 151.601562 194.195312 C 152.835938 196.679688 155.316406 198.210938 158.082031 198.210938 L 178.851562 198.210938 L 170.367188 232.171875 C 169.460938 235.789062 171.175781 239.417969 174.539062 241.023438 C 175.617188 241.53125 176.765625 241.789062 177.886719 241.789062 C 180.242188 241.789062 182.511719 240.695312 184.027344 238.679688 L 221.988281 188.039062 C 223.648438 185.828125 223.917969 182.90625 222.667969 180.421875 C 221.433594 177.953125 218.953125 176.421875 216.1875 176.421875 L 195.417969 176.421875 L 203.902344 142.460938 C 204.808594 138.84375 203.09375 135.214844 199.730469 133.609375 " fill-opacity="1" fill-rule="nonzero"/></svg>