<svg xmlns="http://www.w3.org/2000/svg" xmlns:xlink="http://www.w3.org/1999/xlink" width="500" zoomAndPan="magnify" viewBox="0 0 375 374.999991" height="500" preserveAspectRatio="xMidYMid meet" version="1.0"><defs><clipPath id="9862e87b50"><path d="M 189 81.589844 L 292 81.589844 L 292 293 L 189 293 Z M 189 81.589844 " clip-rule="nonzero"/></clipPath></defs><path fill="#fde89d" d="M 187.5 0 C 83.945312 0 0 83.945312 0 187.5 C 0 291.054688 83.945312 375 187.5 375 C 291.054688 375 375 291.054688 375 187.5 C 375 83.945312 291.054688 0 187.5 0 " fill-opacity="1" fill-rule="nonzero"/><path fill="#d2b32b" d="M 281.652344 212.613281 L 258.1875 218.890625 L 244.097656 210.769531 L 267.84375 204.421875 C 270.863281 203.613281 272.660156 200.511719 271.847656 197.496094 C 271.039062 194.476562 267.929688 192.6875 264.910156 193.496094 L 230.222656 202.773438 L 203.460938 187.355469 L 229.976562 172.074219 L 265.050781 181.457031 C 265.542969 181.585938 266.035156 181.648438 266.519531 181.648438 C 269.023438 181.648438 271.3125 179.984375 271.988281 177.457031 C 272.800781 174.441406 271.007812 171.339844 267.984375 170.53125 L 243.851562 164.078125 L 257.941406 155.960938 L 281.796875 162.339844 C 282.285156 162.46875 282.78125 162.53125 283.265625 162.53125 C 285.765625 162.53125 288.054688 160.867188 288.734375 158.339844 C 289.542969 155.324219 287.75 152.222656 284.726562 151.414062 L 271.820312 147.960938 L 279.109375 143.761719 C 281.820312 142.199219 282.746094 138.742188 281.183594 136.035156 C 279.617188 133.332031 276.15625 132.40625 273.445312 133.964844 L 266.398438 138.027344 L 269.753906 125.527344 C 270.566406 122.511719 268.769531 119.410156 265.75 118.605469 C 262.726562 117.792969 259.621094 119.585938 258.8125 122.601562 L 252.523438 146.023438 L 238.433594 154.140625 L 244.796875 130.445312 C 245.605469 127.429688 243.8125 124.328125 240.789062 123.519531 C 237.769531 122.710938 234.660156 124.5 233.851562 127.515625 L 224.554688 162.140625 L 197.796875 177.558594 L 197.796875 147.003906 L 223.472656 121.375 C 225.6875 119.167969 225.6875 115.585938 223.472656 113.378906 C 221.261719 111.167969 217.675781 111.167969 215.460938 113.378906 L 197.796875 131.007812 L 197.796875 114.769531 L 215.257812 97.34375 C 217.472656 95.132812 217.472656 91.554688 215.257812 89.34375 C 213.046875 87.136719 209.460938 87.136719 207.246094 89.34375 L 197.796875 98.777344 L 197.796875 90.375 C 197.796875 87.25 195.261719 84.71875 192.132812 84.71875 L 192.132812 289.988281 C 195.261719 289.988281 197.796875 287.457031 197.796875 284.332031 L 197.796875 276.214844 L 206.964844 285.363281 C 208.070312 286.46875 209.519531 287.019531 210.96875 287.019531 C 212.417969 287.019531 213.871094 286.46875 214.976562 285.363281 C 217.1875 283.152344 217.1875 279.574219 214.976562 277.367188 L 197.796875 260.21875 L 197.796875 243.980469 L 215.179688 261.332031 C 216.285156 262.433594 217.734375 262.988281 219.183594 262.988281 C 220.636719 262.988281 222.085938 262.433594 223.191406 261.332031 C 225.402344 259.121094 225.402344 255.542969 223.191406 253.332031 L 197.796875 227.988281 L 197.796875 197.148438 L 224.3125 212.425781 L 233.710938 247.433594 C 234.386719 249.960938 236.675781 251.628906 239.179688 251.628906 C 239.664062 251.628906 240.15625 251.566406 240.648438 251.433594 C 243.671875 250.625 245.464844 247.523438 244.652344 244.507812 L 238.1875 220.421875 L 252.277344 228.542969 L 258.667969 252.351562 C 259.347656 254.878906 261.636719 256.542969 264.136719 256.542969 C 264.625 256.542969 265.117188 256.480469 265.605469 256.347656 C 268.628906 255.539062 270.425781 252.441406 269.613281 249.425781 L 266.15625 236.539062 L 273.445312 240.742188 C 274.335938 241.253906 275.3125 241.5 276.273438 241.5 C 278.230469 241.5 280.132812 240.484375 281.183594 238.671875 C 282.746094 235.964844 281.820312 232.507812 279.109375 230.945312 L 272.066406 226.886719 L 284.585938 223.539062 C 287.609375 222.730469 289.402344 219.628906 288.59375 216.613281 C 287.78125 213.597656 284.675781 211.804688 281.652344 212.613281 " fill-opacity="1" fill-rule="nonzero"/><path fill="#d2b32b" d="M 164.496094 187.1875 C 164.496094 198.785156 173.914062 208.1875 185.53125 208.1875 L 185.53125 166.191406 C 173.914062 166.191406 164.496094 175.59375 164.496094 187.1875 " fill-opacity="1" fill-rule="nonzero"/><path fill="#d2b32b" d="M 148.238281 104.941406 C 147.054688 111.152344 146.429688 117.5625 146.429688 124.117188 C 146.429688 136.863281 148.78125 149.058594 153.070312 160.304688 C 152.757812 160.675781 152.453125 161.058594 152.152344 161.445312 C 145.84375 154.222656 140.65625 146.207031 136.667969 137.683594 C 129.121094 121.546875 106.457031 120.519531 97.464844 135.902344 C 97.386719 136.035156 97.308594 136.167969 97.230469 136.304688 C 93.863281 142.128906 91.136719 148.144531 89.035156 154.277344 C 86.085938 162.863281 88.640625 172.371094 95.523438 178.300781 C 100.320312 182.433594 105.570312 186.175781 111.257812 189.453125 C 122.3125 195.824219 134.066406 199.890625 145.960938 201.804688 C 146.132812 202.265625 146.3125 202.71875 146.496094 203.171875 C 137.078125 205.011719 127.535156 205.488281 118.148438 204.671875 C 100.375 203.128906 88.144531 222.207031 97 237.667969 C 97.074219 237.804688 97.152344 237.941406 97.230469 238.074219 C 100.597656 243.898438 104.460938 249.261719 108.726562 254.144531 C 114.703125 260.988281 124.226562 263.53125 132.816406 260.546875 C 138.796875 258.46875 144.671875 255.800781 150.359375 252.523438 C 161.417969 246.152344 170.824219 238.023438 178.433594 228.699219 C 178.914062 228.777344 179.398438 228.851562 179.882812 228.917969 C 176.769531 237.980469 172.414062 246.472656 167.011719 254.175781 C 156.785156 268.769531 167.222656 288.878906 185.066406 288.957031 C 185.222656 288.960938 185.378906 288.960938 185.53125 288.960938 L 185.53125 216.902344 C 169.09375 216.902344 155.765625 203.597656 155.765625 187.1875 C 155.765625 170.78125 169.09375 157.476562 185.53125 157.476562 L 185.53125 85.417969 C 178.796875 85.417969 172.210938 86.074219 165.839844 87.320312 C 156.914062 89.066406 149.945312 96.023438 148.238281 104.941406 " fill-opacity="1" fill-rule="nonzero"/><g clip-path="url(#9862e87b50)"><path fill="#201e1d" d="M 195.066406 99.855469 L 195.066406 113.691406 C 195.214844 113.324219 195.433594 112.984375 195.722656 112.699219 L 213.183594 95.269531 C 213.699219 94.753906 213.984375 94.070312 213.984375 93.34375 C 213.984375 92.617188 213.699219 91.929688 213.183594 91.417969 C 212.667969 90.902344 211.984375 90.617188 211.253906 90.617188 C 210.523438 90.617188 209.839844 90.902344 209.324219 91.417969 L 199.875 100.847656 C 199.035156 101.6875 197.769531 101.9375 196.675781 101.484375 C 195.925781 101.171875 195.355469 100.578125 195.066406 99.855469 Z M 195.066406 132.085938 L 195.066406 145.925781 C 195.214844 145.554688 195.433594 145.214844 195.722656 144.929688 L 221.398438 119.300781 C 221.914062 118.789062 222.199219 118.101562 222.199219 117.375 C 222.199219 116.648438 221.914062 115.964844 221.398438 115.449219 C 220.882812 114.933594 220.195312 114.652344 219.46875 114.652344 C 218.738281 114.652344 218.054688 114.933594 217.539062 115.449219 L 199.875 133.082031 C 199.035156 133.917969 197.769531 134.167969 196.675781 133.714844 C 195.925781 133.40625 195.355469 132.8125 195.066406 132.085938 Z M 281.65625 212.613281 Z M 238.1875 217.492188 C 238.691406 217.492188 239.199219 217.625 239.65625 217.886719 L 253.746094 226.003906 C 254.417969 226.394531 254.910156 227.035156 255.113281 227.785156 L 261.503906 251.59375 C 261.824219 252.78125 262.90625 253.613281 264.136719 253.613281 C 264.375 253.613281 264.613281 253.582031 264.847656 253.519531 C 266.300781 253.128906 267.167969 251.632812 266.777344 250.183594 L 263.320312 237.296875 C 263.011719 236.152344 263.425781 234.9375 264.367188 234.214844 C 265.308594 233.492188 266.59375 233.410156 267.621094 234.003906 L 274.914062 238.203125 C 275.335938 238.445312 275.792969 238.570312 276.273438 238.570312 C 277.246094 238.570312 278.15625 238.046875 278.640625 237.207031 C 279.007812 236.574219 279.101562 235.839844 278.914062 235.136719 C 278.726562 234.4375 278.273438 233.847656 277.640625 233.484375 L 270.597656 229.425781 C 269.570312 228.832031 269 227.679688 269.15625 226.503906 C 269.308594 225.328125 270.160156 224.363281 271.304688 224.058594 L 283.828125 220.707031 C 284.53125 220.519531 285.121094 220.066406 285.484375 219.4375 C 285.847656 218.808594 285.945312 218.074219 285.757812 217.371094 C 285.566406 216.667969 285.117188 216.082031 284.484375 215.714844 C 283.851562 215.351562 283.117188 215.253906 282.414062 215.445312 L 258.949219 221.71875 C 258.195312 221.921875 257.394531 221.816406 256.71875 221.425781 L 242.632812 213.308594 C 241.601562 212.714844 241.035156 211.5625 241.1875 210.386719 C 241.34375 209.210938 242.191406 208.246094 243.339844 207.941406 L 267.082031 201.589844 C 267.785156 201.402344 268.375 200.949219 268.738281 200.320312 C 269.105469 199.691406 269.199219 198.957031 269.011719 198.253906 C 268.824219 197.550781 268.371094 196.964844 267.742188 196.597656 C 267.109375 196.234375 266.375 196.136719 265.667969 196.328125 L 230.980469 205.605469 C 230.230469 205.804688 229.429688 205.699219 228.753906 205.3125 L 201.996094 189.890625 C 201.085938 189.367188 200.527344 188.398438 200.527344 187.355469 C 200.527344 186.308594 201.085938 185.339844 201.996094 184.816406 L 228.507812 169.539062 C 229.183594 169.148438 229.984375 169.042969 230.734375 169.246094 L 265.808594 178.625 C 266.042969 178.6875 266.285156 178.71875 266.519531 178.71875 C 267.75 178.71875 268.835938 177.886719 269.152344 176.699219 C 269.34375 175.996094 269.246094 175.261719 268.882812 174.632812 C 268.515625 174 267.929688 173.550781 267.222656 173.363281 L 243.09375 166.910156 C 241.945312 166.601562 241.097656 165.636719 240.941406 164.460938 C 240.789062 163.285156 241.359375 162.132812 242.386719 161.542969 L 256.476562 153.421875 C 257.148438 153.03125 257.949219 152.929688 258.703125 153.128906 L 282.554688 159.507812 C 282.789062 159.570312 283.027344 159.601562 283.265625 159.601562 C 284.496094 159.601562 285.578125 158.769531 285.898438 157.582031 C 286.085938 156.878906 285.992188 156.144531 285.625 155.515625 C 285.261719 154.882812 284.671875 154.433594 283.96875 154.246094 L 271.0625 150.792969 C 269.914062 150.484375 269.066406 149.519531 268.910156 148.34375 C 268.753906 147.171875 269.324219 146.019531 270.351562 145.425781 L 277.640625 141.222656 C 278.273438 140.859375 278.726562 140.273438 278.914062 139.570312 C 279.101562 138.867188 279.007812 138.132812 278.640625 137.5 C 278.277344 136.871094 277.6875 136.421875 276.984375 136.230469 C 276.28125 136.042969 275.542969 136.140625 274.914062 136.503906 L 267.867188 140.5625 C 266.839844 141.15625 265.554688 141.074219 264.613281 140.351562 C 263.671875 139.628906 263.257812 138.414062 263.5625 137.269531 L 266.917969 124.769531 C 267.308594 123.320312 266.441406 121.824219 264.988281 121.433594 C 264.285156 121.246094 263.550781 121.34375 262.917969 121.707031 C 262.289062 122.070312 261.835938 122.65625 261.644531 123.359375 L 255.359375 146.78125 C 255.15625 147.53125 254.664062 148.171875 253.992188 148.5625 L 239.902344 156.679688 C 238.875 157.273438 237.589844 157.1875 236.644531 156.46875 C 235.703125 155.746094 235.289062 154.53125 235.597656 153.386719 L 241.960938 129.6875 C 242.148438 128.984375 242.050781 128.25 241.6875 127.617188 C 241.324219 126.988281 240.734375 126.539062 240.03125 126.347656 C 239.324219 126.160156 238.589844 126.257812 237.957031 126.621094 C 237.328125 126.984375 236.875 127.574219 236.6875 128.277344 L 227.390625 162.898438 C 227.191406 163.648438 226.699219 164.289062 226.023438 164.675781 L 199.265625 180.097656 C 198.355469 180.621094 197.238281 180.621094 196.328125 180.097656 C 195.746094 179.761719 195.308594 179.242188 195.066406 178.636719 L 195.066406 196.070312 C 195.308594 195.464844 195.746094 194.945312 196.328125 194.609375 C 197.238281 194.085938 198.355469 194.085938 199.265625 194.609375 L 225.777344 209.890625 C 226.453125 210.277344 226.945312 210.917969 227.148438 211.667969 L 236.542969 246.675781 C 236.863281 247.867188 237.945312 248.699219 239.179688 248.699219 C 239.414062 248.699219 239.652344 248.667969 239.886719 248.601562 C 240.59375 248.414062 241.179688 247.964844 241.546875 247.335938 C 241.910156 246.703125 242.007812 245.96875 241.816406 245.265625 L 235.351562 221.183594 C 235.046875 220.039062 235.460938 218.820312 236.402344 218.097656 C 236.925781 217.695312 237.554688 217.492188 238.1875 217.492188 Z M 197.796875 241.050781 C 198.5625 241.050781 199.3125 241.347656 199.875 241.910156 L 217.253906 259.257812 C 217.769531 259.773438 218.457031 260.054688 219.183594 260.054688 C 219.914062 260.054688 220.597656 259.773438 221.117188 259.257812 C 222.179688 258.195312 222.179688 256.46875 221.117188 255.40625 L 195.722656 230.058594 C 195.433594 229.773438 195.214844 229.4375 195.066406 229.066406 L 195.066406 242.902344 C 195.355469 242.179688 195.925781 241.582031 196.675781 241.273438 C 197.039062 241.125 197.417969 241.050781 197.796875 241.050781 Z M 197.796875 273.285156 C 198.5625 273.285156 199.3125 273.582031 199.875 274.140625 L 209.039062 283.292969 C 209.554688 283.804688 210.242188 284.089844 210.96875 284.089844 C 211.699219 284.089844 212.382812 283.804688 212.898438 283.289062 C 213.964844 282.230469 213.964844 280.5 212.898438 279.4375 L 195.722656 262.292969 C 195.433594 262.007812 195.214844 261.667969 195.066406 261.296875 L 195.066406 275.136719 C 195.355469 274.414062 195.925781 273.816406 196.675781 273.507812 C 197.039062 273.355469 197.417969 273.285156 197.796875 273.285156 Z M 192.132812 292.917969 C 190.511719 292.917969 189.195312 291.605469 189.195312 289.988281 L 189.195312 84.71875 C 189.195312 83.101562 190.511719 81.789062 192.132812 81.789062 C 196.875 81.789062 200.734375 85.640625 200.734375 90.375 L 200.734375 91.703125 L 205.171875 87.273438 C 206.796875 85.652344 208.957031 84.757812 211.253906 84.757812 C 213.550781 84.757812 215.710938 85.652344 217.335938 87.273438 C 218.960938 88.894531 219.855469 91.050781 219.855469 93.34375 C 219.855469 95.636719 218.960938 97.792969 217.335938 99.414062 L 200.734375 115.984375 L 200.734375 123.933594 L 213.386719 111.304688 C 215.011719 109.683594 217.171875 108.792969 219.46875 108.792969 C 221.765625 108.792969 223.925781 109.683594 225.550781 111.304688 C 227.175781 112.925781 228.070312 115.082031 228.070312 117.375 C 228.070312 119.667969 227.175781 121.824219 225.550781 123.445312 L 200.734375 148.214844 L 200.734375 172.484375 L 222.035156 160.207031 L 231.015625 126.757812 C 231.609375 124.542969 233.035156 122.691406 235.023438 121.546875 C 237.011719 120.398438 239.332031 120.09375 241.550781 120.6875 C 243.769531 121.28125 245.621094 122.703125 246.773438 124.6875 C 247.921875 126.671875 248.226562 128.988281 247.632812 131.203125 L 243.101562 148.066406 L 250 144.09375 L 255.972656 121.84375 C 256.570312 119.628906 257.992188 117.777344 259.984375 116.628906 C 261.972656 115.484375 264.289062 115.179688 266.507812 115.773438 C 271.089844 116.996094 273.816406 121.714844 272.589844 126.289062 L 271.070312 131.953125 L 271.976562 131.429688 C 273.964844 130.28125 276.285156 129.976562 278.503906 130.570312 C 280.722656 131.164062 282.578125 132.585938 283.726562 134.570312 C 284.875 136.558594 285.179688 138.871094 284.585938 141.085938 C 283.992188 143.300781 282.566406 145.152344 280.578125 146.300781 L 279.425781 146.964844 L 285.488281 148.582031 C 287.707031 149.175781 289.5625 150.597656 290.710938 152.582031 C 291.859375 154.570312 292.164062 156.882812 291.570312 159.097656 C 290.566406 162.847656 287.148438 165.464844 283.265625 165.464844 C 282.515625 165.464844 281.765625 165.363281 281.035156 165.167969 L 258.359375 159.105469 L 251.460938 163.078125 L 268.742188 167.703125 C 270.960938 168.292969 272.816406 169.714844 273.964844 171.699219 C 275.113281 173.6875 275.417969 176 274.824219 178.214844 C 273.820312 181.964844 270.402344 184.582031 266.519531 184.582031 C 265.769531 184.582031 265.019531 184.480469 264.292969 184.285156 L 230.390625 175.21875 L 209.335938 187.355469 L 230.636719 199.628906 L 264.148438 190.667969 C 266.367188 190.074219 268.6875 190.375 270.675781 191.523438 C 272.667969 192.671875 274.089844 194.519531 274.683594 196.738281 C 275.277344 198.953125 274.972656 201.265625 273.824219 203.25 C 272.675781 205.238281 270.820312 206.65625 268.601562 207.25 L 251.707031 211.769531 L 258.601562 215.746094 L 280.894531 209.78125 C 283.113281 209.191406 285.429688 209.492188 287.421875 210.640625 C 289.410156 211.789062 290.835938 213.640625 291.429688 215.855469 C 292.023438 218.070312 291.71875 220.382812 290.570312 222.367188 C 289.421875 224.355469 287.566406 225.773438 285.347656 226.367188 L 279.671875 227.886719 L 280.578125 228.410156 C 282.566406 229.554688 283.992188 231.40625 284.585938 233.621094 C 285.179688 235.835938 284.875 238.148438 283.726562 240.136719 C 282.195312 242.785156 279.339844 244.429688 276.273438 244.429688 C 274.769531 244.429688 273.28125 244.03125 271.976562 243.277344 L 270.824219 242.613281 L 272.449219 248.664062 C 273.675781 253.238281 270.949219 257.953125 266.367188 259.179688 C 265.640625 259.375 264.890625 259.472656 264.136719 259.472656 C 260.253906 259.472656 256.839844 256.855469 255.832031 253.109375 L 249.757812 230.472656 L 242.859375 226.5 L 247.488281 243.75 C 248.085938 245.964844 247.777344 248.277344 246.632812 250.265625 C 245.480469 252.25 243.625 253.671875 241.40625 254.265625 C 240.679688 254.460938 239.929688 254.558594 239.179688 254.558594 C 235.292969 254.558594 231.878906 251.941406 230.871094 248.191406 L 221.789062 214.355469 L 200.734375 202.222656 L 200.734375 226.773438 L 225.265625 251.261719 C 228.621094 254.609375 228.621094 260.054688 225.265625 263.402344 C 223.644531 265.023438 221.484375 265.917969 219.183594 265.917969 C 216.886719 265.917969 214.726562 265.023438 213.101562 263.402344 L 200.734375 251.054688 L 200.734375 259.007812 L 217.050781 275.292969 C 220.40625 278.640625 220.40625 284.085938 217.050781 287.433594 C 215.425781 289.058594 213.265625 289.949219 210.96875 289.949219 C 208.671875 289.949219 206.511719 289.054688 204.886719 287.433594 L 200.734375 283.289062 L 200.734375 284.332031 C 200.734375 289.066406 196.875 292.917969 192.132812 292.917969 " fill-opacity="1" fill-rule="nonzero"/></g><path fill="#201e1d" d="M 182.597656 169.359375 C 174.007812 170.765625 167.433594 178.222656 167.433594 187.1875 C 167.433594 196.15625 174.007812 203.613281 182.597656 205.019531 Z M 185.53125 211.117188 C 172.316406 211.117188 161.558594 200.382812 161.558594 187.1875 C 161.558594 173.996094 172.316406 163.261719 185.53125 163.261719 C 187.15625 163.261719 188.46875 164.574219 188.46875 166.191406 L 188.46875 208.1875 C 188.46875 209.804688 187.15625 211.117188 185.53125 211.117188 " fill-opacity="1" fill-rule="nonzero"/><path fill="#201e1d" d="M 148.238281 104.941406 L 148.242188 104.941406 Z M 116.144531 207.515625 C 109.589844 207.515625 103.667969 210.746094 100.0625 216.371094 C 96.132812 222.5 95.941406 229.917969 99.546875 236.214844 L 99.773438 236.609375 C 102.988281 242.167969 106.746094 247.421875 110.9375 252.21875 C 116.160156 258.195312 124.371094 260.378906 131.851562 257.78125 C 137.726562 255.738281 143.460938 253.117188 148.890625 249.988281 C 159.390625 243.933594 168.566406 236.152344 176.160156 226.847656 C 176.824219 226.027344 177.882812 225.632812 178.925781 225.808594 C 179.378906 225.886719 179.832031 225.953125 180.273438 226.011719 C 181.144531 226.128906 181.917969 226.628906 182.378906 227.375 C 182.464844 227.511719 182.535156 227.652344 182.597656 227.796875 L 182.597656 219.699219 C 165.933594 218.214844 152.828125 204.199219 152.828125 187.1875 C 152.828125 170.179688 165.933594 156.164062 182.597656 154.675781 L 182.597656 88.394531 C 177.148438 88.550781 171.714844 89.15625 166.40625 90.195312 C 158.609375 91.722656 152.609375 97.726562 151.125 105.492188 C 149.957031 111.589844 149.367188 117.859375 149.367188 124.117188 C 149.367188 136.222656 151.535156 148.046875 155.8125 159.261719 C 156.1875 160.25 156.003906 161.363281 155.328125 162.175781 C 155.050781 162.507812 154.765625 162.863281 154.476562 163.238281 C 153.9375 163.929688 153.117188 164.347656 152.238281 164.375 C 151.363281 164.398438 150.519531 164.03125 149.941406 163.371094 C 143.519531 156.019531 138.160156 147.792969 134.011719 138.925781 C 130.9375 132.351562 124.753906 128.230469 117.476562 127.898438 C 110.195312 127.566406 103.664062 131.113281 100 137.378906 L 99.773438 137.769531 C 96.558594 143.328125 93.878906 149.199219 91.8125 155.226562 C 89.238281 162.730469 91.445312 170.917969 97.441406 176.082031 C 102.152344 180.140625 107.292969 183.785156 112.726562 186.914062 C 123.222656 192.964844 134.5625 197 146.429688 198.914062 C 147.472656 199.082031 148.347656 199.796875 148.714844 200.789062 C 148.863281 201.195312 149.027344 201.609375 149.210938 202.058594 C 149.546875 202.871094 149.5 203.789062 149.082031 204.558594 C 148.664062 205.332031 147.921875 205.878906 147.0625 206.046875 C 137.476562 207.921875 127.664062 208.441406 117.894531 207.59375 C 117.308594 207.542969 116.722656 207.515625 116.144531 207.515625 Z M 182.597656 230.050781 C 179.433594 239.210938 175 247.890625 169.417969 255.855469 C 165.25 261.800781 164.765625 269.203125 168.117188 275.660156 C 171.082031 281.371094 176.382812 285.0625 182.597656 285.863281 Z M 185.53125 291.890625 L 185.054688 291.886719 C 175.558594 291.847656 167.28125 286.789062 162.90625 278.355469 C 158.53125 269.929688 159.164062 260.261719 164.605469 252.496094 C 167.433594 248.460938 169.949219 244.234375 172.136719 239.84375 C 166.042969 245.691406 159.25 250.785156 151.828125 255.0625 C 146.078125 258.375 140.003906 261.152344 133.78125 263.316406 C 124.023438 266.707031 113.320312 263.863281 106.515625 256.070312 C 102.070312 250.988281 98.09375 245.425781 94.6875 239.539062 L 94.449219 239.121094 C 89.738281 230.894531 89.988281 221.210938 95.117188 213.214844 C 100.242188 205.21875 108.949219 200.933594 118.402344 201.753906 C 123.320312 202.179688 128.246094 202.242188 133.148438 201.9375 C 125.03125 199.59375 117.210938 196.265625 109.789062 191.992188 C 104.039062 188.675781 98.59375 184.816406 93.605469 180.519531 C 85.785156 173.78125 82.902344 163.105469 86.257812 153.328125 C 88.449219 146.945312 91.285156 140.722656 94.6875 134.839844 L 94.929688 134.425781 C 99.710938 126.238281 108.242188 121.613281 117.746094 122.046875 C 127.246094 122.480469 135.316406 127.863281 139.332031 136.445312 C 141.417969 140.910156 143.828125 145.195312 146.546875 149.28125 C 144.519531 141.09375 143.496094 132.671875 143.496094 124.117188 C 143.496094 117.488281 144.121094 110.851562 145.355469 104.394531 C 147.292969 94.261719 155.113281 86.433594 165.277344 84.445312 C 171.910156 83.148438 178.722656 82.488281 185.53125 82.488281 C 187.15625 82.488281 188.46875 83.800781 188.46875 85.417969 L 188.46875 157.476562 C 188.46875 159.09375 187.15625 160.40625 185.53125 160.40625 C 170.738281 160.40625 158.699219 172.421875 158.699219 187.1875 C 158.699219 201.957031 170.738281 213.972656 185.53125 213.972656 C 187.15625 213.972656 188.46875 215.28125 188.46875 216.902344 L 188.46875 288.960938 C 188.46875 290.578125 187.15625 291.890625 185.53125 291.890625 " fill-opacity="1" fill-rule="nonzero"/></svg>