<svg xmlns="http://www.w3.org/2000/svg" xmlns:xlink="http://www.w3.org/1999/xlink" width="500" zoomAndPan="magnify" viewBox="0 0 375 374.999991" height="500" preserveAspectRatio="xMidYMid meet" version="1.0"><path fill="#fde89d" d="M 187.5 0 C 83.945312 0 0 83.945312 0 187.5 C 0 291.054688 83.945312 375 187.5 375 C 291.054688 375 375 291.054688 375 187.5 C 375 83.945312 291.054688 0 187.5 0 " fill-opacity="1" fill-rule="nonzero"/><path fill="#f7ce2c" d="M 241.09375 91.386719 C 242.511719 89.960938 244.835938 89.957031 246.257812 91.378906 L 285.035156 130.195312 C 286.457031 131.617188 286.457031 133.941406 285.035156 135.363281 L 278.792969 141.605469 C 277.371094 143.027344 275.046875 143.027344 273.625 141.605469 L 234.847656 102.828125 C 233.425781 101.40625 233.421875 99.074219 234.839844 97.648438 Z M 241.09375 91.386719 " fill-opacity="1" fill-rule="nonzero"/><path fill="#201e1d" d="M 185.28125 74.167969 C 187.292969 74.167969 188.9375 75.816406 188.9375 77.824219 L 188.9375 85.140625 C 188.9375 87.152344 187.292969 88.796875 185.28125 88.796875 L 130.4375 88.796875 C 128.425781 88.796875 126.78125 87.152344 126.78125 85.140625 L 126.78125 77.824219 C 126.78125 75.816406 128.425781 74.167969 130.4375 74.167969 Z M 185.28125 74.167969 " fill-opacity="1" fill-rule="nonzero"/><path fill="#201e1d" d="M 185.28125 286.230469 C 187.292969 286.230469 188.9375 287.875 188.9375 289.886719 L 188.9375 297.199219 C 188.9375 299.210938 187.292969 300.855469 185.28125 300.855469 L 130.4375 300.855469 C 128.425781 300.855469 126.78125 299.210938 126.78125 297.199219 L 126.78125 289.886719 C 126.78125 287.875 128.425781 286.230469 130.4375 286.230469 Z M 185.28125 286.230469 " fill-opacity="1" fill-rule="nonzero"/><path fill="#201e1d" d="M 274.714844 156.03125 C 271.863281 158.886719 267.21875 158.886719 264.367188 156.03125 L 220.414062 112.085938 C 217.566406 109.234375 217.566406 104.589844 220.414062 101.738281 L 225.570312 96.582031 C 228.421875 93.730469 233.070312 93.730469 235.917969 96.582031 L 279.871094 140.53125 C 282.71875 143.378906 282.71875 148.027344 279.871094 150.878906 Z M 274.714844 156.03125 " fill-opacity="1" fill-rule="nonzero"/><path fill="#f7ce2c" d="M 248.863281 171.535156 C 247.4375 172.960938 245.097656 172.960938 243.671875 171.535156 L 204.917969 132.742188 C 203.453125 131.316406 203.453125 129.011719 204.917969 127.589844 L 220.414062 112.089844 L 264.367188 156.035156 Z M 248.863281 171.535156 " fill-opacity="1" fill-rule="nonzero"/><path fill="#d2b32b" d="M 204.917969 132.742188 L 243.671875 171.535156 L 185.28125 229.960938 L 185.28125 152.375 Z M 204.917969 132.742188 " fill-opacity="1" fill-rule="nonzero"/><path fill="#f7ce2c" d="M 185.28125 229.960938 L 185.28125 242.355469 L 130.4375 242.355469 L 130.4375 132.667969 L 185.28125 132.667969 Z M 185.28125 229.960938 " fill-opacity="1" fill-rule="nonzero"/><path fill="#d2b32b" d="M 196.25 275.261719 L 196.25 282.574219 C 196.25 286.597656 192.960938 289.886719 188.9375 289.886719 L 126.78125 289.886719 C 122.757812 289.886719 119.46875 286.597656 119.46875 282.574219 L 119.46875 275.261719 C 119.46875 271.242188 122.757812 267.949219 126.78125 267.949219 L 188.9375 267.949219 C 192.960938 267.949219 196.25 271.242188 196.25 275.261719 Z M 196.25 275.261719 " fill-opacity="1" fill-rule="nonzero"/><path fill="#201e1d" d="M 185.28125 242.355469 C 187.292969 242.355469 188.9375 244.003906 188.9375 246.011719 L 188.9375 267.949219 L 126.78125 267.949219 L 126.78125 246.011719 C 126.78125 244.003906 128.425781 242.355469 130.4375 242.355469 Z M 185.28125 242.355469 " fill-opacity="1" fill-rule="nonzero"/><path fill="#201e1d" d="M 188.9375 107.074219 L 188.9375 129.011719 C 188.9375 131.023438 187.292969 132.667969 185.28125 132.667969 L 130.4375 132.667969 C 128.425781 132.667969 126.78125 131.023438 126.78125 129.011719 L 126.78125 107.074219 Z M 188.9375 107.074219 " fill-opacity="1" fill-rule="nonzero"/><path fill="#d2b32b" d="M 196.25 92.449219 L 196.25 99.761719 C 196.25 103.785156 192.960938 107.074219 188.9375 107.074219 L 126.78125 107.074219 C 122.757812 107.074219 119.46875 103.785156 119.46875 99.761719 L 119.46875 92.449219 C 119.46875 88.429688 122.757812 85.136719 126.78125 85.136719 L 188.9375 85.136719 C 192.960938 85.136719 196.25 88.429688 196.25 92.449219 Z M 196.25 92.449219 " fill-opacity="1" fill-rule="nonzero"/></svg>