<svg xmlns="http://www.w3.org/2000/svg" xmlns:xlink="http://www.w3.org/1999/xlink" width="500" zoomAndPan="magnify" viewBox="0 0 375 374.999991" height="500" preserveAspectRatio="xMidYMid meet" version="1.0"><defs><clipPath id="4b5c6307dd"><path d="M 95.15625 157.398438 L 224 157.398438 L 224 288.078125 L 95.15625 288.078125 Z M 95.15625 157.398438 " clip-rule="nonzero"/></clipPath></defs><path fill="#fde89d" d="M 187.5 0 C 83.945312 0 0 83.945312 0 187.5 C 0 291.054688 83.945312 375 187.5 375 C 291.054688 375 375 291.054688 375 187.5 C 375 83.945312 291.054688 0 187.5 0 " fill-opacity="1" fill-rule="nonzero"/><g clip-path="url(#4b5c6307dd)"><path fill="#d2b32b" d="M 115.105469 277.707031 C 112.371094 280.445312 107.941406 280.445312 105.210938 277.707031 C 102.480469 274.96875 102.480469 270.53125 105.210938 267.792969 C 107.945312 265.054688 112.375 265.054688 115.105469 267.792969 C 117.835938 270.53125 117.835938 274.972656 115.105469 277.707031 Z M 154.519531 220.714844 C 153.007812 219.195312 152.242188 217.21875 152.183594 215.230469 C 150.859375 215.507812 149.5 215.664062 148.128906 215.753906 L 100.046875 261.71875 C 93.894531 267.671875 93.808594 277.523438 99.855469 283.585938 C 105.902344 289.644531 115.734375 289.5625 121.671875 283.394531 L 169.746094 233.023438 C 167.757812 232.914062 165.90625 232.121094 164.488281 230.699219 Z M 204.824219 157.40625 C 203.964844 158.984375 203.015625 160.523438 202.023438 162.027344 L 220.15625 180.199219 C 221.375 178.933594 222.664062 177.746094 224 176.625 L 204.824219 157.40625 " fill-opacity="1" fill-rule="nonzero"/></g><path fill="#000000" d="M 245.28125 150.46875 C 246.246094 151.433594 246.246094 153 245.28125 153.964844 L 236.039062 163.226562 C 235.074219 164.195312 233.511719 164.195312 232.546875 163.226562 L 217.59375 148.238281 C 216.628906 147.273438 216.628906 145.707031 217.59375 144.738281 L 226.835938 135.476562 C 227.800781 134.511719 229.363281 134.511719 230.328125 135.476562 Z M 224.949219 103.316406 C 216.847656 111.433594 212.503906 121.800781 212.015625 132.039062 C 211.585938 141.003906 209.042969 149.636719 204.824219 157.40625 L 224 176.625 C 232.273438 169.699219 242.617188 165.636719 253.480469 165.15625 L 260 164.867188 C 264.664062 164.660156 269.078125 162.710938 272.378906 159.40625 L 274.496094 157.28125 L 249.019531 131.746094 L 249.019531 113.761719 L 269.75 92.992188 C 255.273438 87.242188 237.449219 90.792969 224.949219 103.316406 " fill-opacity="1" fill-rule="nonzero"/><path fill="#000000" d="M 237.917969 162.304688 L 244.359375 155.847656 L 224.957031 136.402344 L 218.515625 142.859375 L 237.917969 162.304688 " fill-opacity="1" fill-rule="nonzero"/><path fill="#000000" d="M 220.566406 149.351562 C 219.585938 148.375 219.585938 146.785156 220.566406 145.804688 L 227.894531 138.457031 C 228.875 137.476562 230.460938 137.476562 231.4375 138.457031 C 232.414062 139.4375 232.414062 141.027344 231.4375 142.007812 L 224.105469 149.351562 C 223.128906 150.332031 221.542969 150.332031 220.566406 149.351562 " fill-opacity="1" fill-rule="nonzero"/><path fill="#000000" d="M 226.003906 154.800781 C 225.023438 153.820312 225.023438 152.230469 226.003906 151.25 L 233.332031 143.90625 C 234.308594 142.925781 235.894531 142.925781 236.875 143.90625 C 237.851562 144.886719 237.851562 146.472656 236.875 147.457031 L 229.542969 154.800781 C 228.566406 155.78125 226.980469 155.78125 226.003906 154.800781 " fill-opacity="1" fill-rule="nonzero"/><path fill="#000000" d="M 231.4375 160.25 C 230.460938 159.269531 230.460938 157.679688 231.4375 156.699219 L 238.769531 149.351562 C 239.746094 148.375 241.332031 148.375 242.308594 149.351562 C 243.289062 150.332031 243.289062 151.921875 242.308594 152.902344 L 234.980469 160.25 C 234 161.230469 232.414062 161.230469 231.4375 160.25 " fill-opacity="1" fill-rule="nonzero"/><path fill="#000000" d="M 252.230469 131.25 L 274.519531 153.59375 C 286.753906 140.488281 290.492188 122.734375 285.164062 108.441406 L 263.3125 130.335938 L 252.230469 130.628906 L 252.230469 131.25 " fill-opacity="1" fill-rule="nonzero"/><path fill="#000000" d="M 137.722656 152.015625 L 161.398438 134.898438 C 162.386719 134.183594 163.492188 133.746094 164.625 133.566406 L 157.585938 126.511719 C 157.328125 126.253906 156.921875 126.230469 156.640625 126.457031 L 156.367188 126.675781 L 155.445312 130.320312 L 151.691406 130.414062 L 151.53125 130.542969 L 150.609375 134.1875 L 146.855469 134.28125 L 146.695312 134.410156 L 145.773438 138.054688 L 142.023438 138.148438 L 141.863281 138.277344 L 140.941406 141.917969 L 137.191406 142.011719 L 137.03125 142.140625 L 136.109375 145.785156 L 132.359375 145.875 C 132.027344 146.140625 132 146.636719 132.300781 146.9375 L 137.523438 152.171875 C 137.589844 152.117188 137.652344 152.0625 137.722656 152.015625 " fill-opacity="1" fill-rule="nonzero"/><path fill="#d2b32b" d="M 278.769531 259.886719 C 281.460938 262.582031 281.761719 266.652344 279.445312 268.976562 C 277.125 271.296875 273.066406 270.996094 270.375 268.300781 L 255.191406 253.085938 C 252.5 250.390625 252.199219 246.320312 254.519531 243.996094 C 256.835938 241.671875 260.898438 241.976562 263.589844 244.671875 Z M 162.734375 136.753906 L 139.054688 153.867188 C 138.648438 154.164062 138.28125 154.519531 137.972656 154.917969 L 126.515625 169.824219 C 121.3125 176.589844 120.253906 185.675781 123.761719 193.460938 L 125.210938 196.675781 C 127.621094 202.027344 131.96875 206.257812 137.375 208.511719 C 146.007812 212.113281 155.953125 210.140625 162.566406 203.515625 L 177.816406 188.230469 L 196.050781 206.503906 L 188.703125 213.867188 C 186.621094 215.957031 186.621094 219.339844 188.703125 221.429688 C 189.816406 222.542969 191.359375 223.109375 192.921875 222.976562 L 197.613281 222.585938 C 206.089844 221.875 214.453125 224.945312 220.46875 230.972656 L 267.753906 278.363281 C 273.425781 284.042969 282.617188 284.042969 288.289062 278.363281 L 289 277.648438 C 294.671875 271.96875 294.671875 262.753906 289 257.070312 L 169.488281 137.296875 C 167.671875 135.480469 164.8125 135.25 162.734375 136.753906 " fill-opacity="1" fill-rule="nonzero"/><path fill="#000000" d="M 204.546875 225.164062 C 202.34375 224.785156 200.082031 224.671875 197.804688 224.863281 L 195.9375 225.019531 L 202.523438 231.621094 C 204.59375 233.695312 204.59375 237.054688 202.523438 239.128906 C 200.457031 241.203125 197.101562 241.203125 195.03125 239.128906 L 179.730469 223.792969 L 176.410156 227.117188 L 176.558594 230.503906 L 179.933594 230.652344 L 180.082031 234.035156 L 183.457031 234.183594 L 183.605469 237.5625 L 186.976562 237.710938 L 187.125 241.09375 L 190.5 241.238281 L 190.648438 244.613281 C 195.453125 249.253906 203.097656 249.203125 207.835938 244.453125 C 212.574219 239.703125 212.625 232.042969 207.996094 227.226562 L 204.628906 227.078125 L 204.546875 225.164062 " fill-opacity="1" fill-rule="nonzero"/><path fill="#000000" d="M 190.183594 208.5 L 171.960938 226.765625 C 170.980469 227.742188 169.394531 227.742188 168.417969 226.765625 L 158.449219 216.773438 C 157.472656 215.792969 157.472656 214.203125 158.449219 213.226562 L 176.675781 194.957031 C 177.652344 193.980469 179.238281 193.980469 180.21875 194.957031 L 190.183594 204.949219 C 191.164062 205.929688 191.164062 207.519531 190.183594 208.5 " fill-opacity="1" fill-rule="nonzero"/><path fill="#000000" d="M 117.507812 95.644531 L 115.054688 96.332031 C 106.628906 98.882812 97.015625 103.816406 89.160156 111.691406 C 88.519531 112.332031 88.269531 112.582031 88.269531 112.582031 C 80.503906 120.363281 80.179688 132.769531 87.28125 140.949219 C 87.238281 140.988281 88.269531 142.023438 88.269531 142.023438 L 92.078125 145.835938 L 121.089844 174.910156 C 121.941406 172.667969 123.117188 170.527344 124.613281 168.558594 L 107.527344 151.433594 C 105.457031 149.363281 105.457031 146 107.527344 143.925781 C 109.597656 141.851562 112.953125 141.851562 115.019531 143.925781 L 131.132812 160.070312 L 135.425781 154.488281 L 117.96875 136.996094 C 115.121094 134.140625 113.996094 130.210938 114.59375 126.507812 L 114.886719 122.976562 L 118.625 122.464844 L 119.140625 118.71875 L 122.878906 118.203125 L 123.390625 114.453125 L 127.128906 113.941406 L 127.644531 110.191406 L 131.382812 109.675781 L 131.898438 105.929688 L 135.640625 105.410156 L 136.15625 101.664062 L 138.316406 99.5 C 138.316406 99.5 136.890625 98.074219 134.757812 95.933594 C 132.632812 93.804688 125.839844 93.515625 117.507812 95.644531 " fill-opacity="1" fill-rule="nonzero"/></svg>